<svg width="88" height="24" viewBox="0 0 88 24" fill="none" xmlns="http://www.w3.org/2000/svg">
<path d="M53.6377 6.86914C57.7472 6.86921 61.3525 9.63691 61.3525 14.3057C61.3524 18.9743 57.7471 21.7421 53.6377 21.7422C49.5282 21.7422 45.922 18.9743 45.9219 14.3057C45.9219 9.63686 49.5282 6.86914 53.6377 6.86914ZM83.1074 2.29883C84.035 2.26048 85.3533 2.88695 85.668 3.81836C85.8905 4.47737 85.6184 5.24453 85.0928 5.7002C84.5671 6.15585 83.8313 6.32291 83.1396 6.25C82.4482 6.17703 81.795 5.88386 81.207 5.5127C80.9155 5.32855 80.6287 5.12054 80.2949 5.03418C79.4671 4.8193 78.9299 5.80721 78.5098 6.38086C77.5083 7.75167 76.8181 9.35162 76.209 10.9268C76.1774 11.0091 76.1449 11.0925 76.1143 11.1758L74.1572 16.3477C73.151 18.9751 73.1232 20.1219 73.458 20.7646C73.6534 21.1556 73.6258 21.2958 73.207 21.2959H66.4424C66.0233 21.2959 65.995 21.1279 66.1904 20.7646L66.1895 20.7637C66.5252 20.0931 66.4135 18.8906 65.4629 16.2344L64.0088 12.1523C63.3096 10.168 62.7238 9.77632 62.1367 8.91016C61.3541 7.79175 61.4096 7.3174 62.7793 7.31738H67.9785C69.5162 7.31738 69.5165 8.10019 69.3486 9.16211C69.1809 10.0848 69.5447 11.0341 69.9639 12.2646L71.8926 17.9121C72.0605 18.4436 72.4244 18.4436 72.6201 17.9121C72.6379 17.8633 75.1065 11.0947 75.1084 11.0918C76.1137 8.3359 77.3979 5.20317 79.8516 3.41699C80.7686 2.74933 81.9764 2.34583 83.1074 2.29883ZM37.8428 6.87012C42.8464 6.87012 43.5459 10.812 43.5459 12.6289V16.375C43.5459 17.6325 43.7971 18.8634 44.1885 19.7852C44.692 20.9313 44.7201 21.2949 43.4619 21.2949H38.0391C36.7816 21.2949 36.809 20.9313 37.3115 19.7852C37.7029 18.8624 37.9541 17.6325 37.9541 16.375V12.0693C37.9541 9.46979 37.2551 8.4639 35.9141 8.46387C34.4886 8.46387 33.6497 9.9447 33.2861 11.4824C33.2305 11.7337 33.2031 11.902 33.2031 12.1533V16.374C33.2032 17.6315 33.4544 18.8624 33.8457 19.7842C34.3492 20.9302 34.3772 21.2939 33.1191 21.2939H27.6963C26.4388 21.2939 26.4662 20.9303 26.9688 19.7842V19.7852C27.3601 18.8624 27.6113 17.6325 27.6113 16.375V10.9521C27.6113 10.8965 27.5835 10.7842 27.5557 10.7285L26.6895 9.38672C26.466 9.05099 26.6341 8.63181 27.0254 8.52051L32.3926 6.98242C32.8118 6.87023 33.2031 7.15066 33.2031 7.59766V8.26758C33.2031 8.7712 33.4548 8.85478 33.8184 8.49121C34.6289 7.59637 35.9428 6.8702 37.8428 6.87012ZM85.3945 7.00879C85.8136 6.89676 86.2051 7.1771 86.2051 7.62402V16.374C86.2051 17.6315 86.4563 18.8624 86.8477 19.7842C87.3511 20.9302 87.3786 21.2939 86.1201 21.2939H80.6973C79.4402 21.2939 79.4682 20.9302 79.9707 19.7842C80.362 18.8615 80.6132 17.6315 80.6133 16.374V10.9785C80.6133 10.9229 80.5854 10.8105 80.5576 10.7549L79.6914 9.41309C79.4679 9.07734 79.636 8.65815 80.0273 8.54688L85.3945 7.00879ZM55.5381 13.4111C54.0004 10.0289 52.2956 7.96001 50.9814 8.60352C49.6673 9.19058 50.143 11.8457 51.7363 15.2002C53.274 18.5826 54.9509 20.6524 56.293 20.0088C57.635 19.4217 57.1314 16.7657 55.5381 13.4111Z" fill="white"/>
<path fill-rule="evenodd" clip-rule="evenodd" d="M18.0312 19.5288C20.0583 17.3817 23.5757 10.3652 21.8502 7.54891C19.1533 3.13615 6.71269 17.4442 8.74379 22.8376C9.55112 24.9795 13.0634 23.658 14.2434 22.8507C15.3067 22.1197 15.7659 21.8094 16.1794 21.4471C16.6215 21.0597 17.0114 20.6128 18.0312 19.5288ZM13.0992 0C15.1484 0 16.8029 1.65443 16.8029 3.70372C16.8029 5.74846 15.1439 7.40289 13.0992 7.40289C11.0544 7.40289 9.39999 5.75301 9.39999 3.70372C9.39999 1.65443 11.0499 0 13.0992 0ZM9.2265 20.8686L9.22765 20.8694C9.2919 20.9133 9.35839 20.9588 9.42726 21.0059C10.6823 21.8667 14.4258 23.2768 15.2865 20.9968C15.9873 19.1255 15.0576 16.2496 13.3873 13.3831C13.1969 13.0568 12.9969 12.7305 12.7885 12.4059C10.7176 15.0046 9.02379 18.0332 8.61557 20.4497C8.79444 20.5731 8.99603 20.711 9.2265 20.8686Z" fill="white"/>
<path fill-rule="evenodd" clip-rule="evenodd" d="M5.39119 17.4709C3.23112 15.1819 -0.516907 7.70855 1.31932 4.70592C3.15143 1.70855 9.20247 6.81836 12.7885 12.4059C10.7176 15.0046 9.02379 18.0332 8.61557 20.4497C7.36722 19.589 7.22538 19.4368 6.09537 18.224C5.89544 18.0095 5.66458 17.7617 5.39119 17.4709ZM15.2865 20.9968C15.9892 19.1262 15.0599 16.2502 13.3873 13.3831C15.0576 16.2496 15.9873 19.1255 15.2865 20.9968Z" fill="white"/>
<path fill-rule="evenodd" clip-rule="evenodd" d="M9.17757 20.8351C8.96736 20.6913 8.78167 20.5643 8.61557 20.4497L8.61538 20.4508C8.77984 20.5636 8.96563 20.6906 9.17757 20.8351ZM12.7885 12.4059C12.9967 12.7307 13.197 13.0566 13.3873 13.3831C13.1969 13.0568 12.9969 12.7305 12.7885 12.4059C12.7887 12.4057 12.7884 12.4061 12.7885 12.4059Z" fill="white"/>
</svg>
